<?xml version="1.0" encoding="UTF-8" standalone="no"?>
<!DOCTYPE svg PUBLIC "-//W3C//DTD SVG 1.1//EN"
 "http://www.w3.org/Graphics/SVG/1.1/DTD/svg11.dtd">
<!-- Generated by graphviz version 2.26.3 (20100126.1600)
 -->
<!-- Title: controllers_diagram Pages: 1 -->
<svg width="759pt" height="737pt"
 viewBox="0.00 0.00 759.00 737.00" xmlns="http://www.w3.org/2000/svg" xmlns:xlink="http://www.w3.org/1999/xlink">
<g id="graph1" class="graph" transform="scale(1 1) rotate(0) translate(4 733)">
<title>controllers_diagram</title>
<polygon fill="none" stroke="none" points="-4,5 -4,-733 756,-733 756,5 -4,5"/>
<!-- _diagram_info -->
<g id="node1" class="node"><title>_diagram_info</title>
<text text-anchor="start" x="177" y="-540.3" font-family="Times Roman,serif" font-size="13.00">Controllers diagram</text>
<text text-anchor="start" x="177" y="-523.3" font-family="Times Roman,serif" font-size="13.00">Date: Mar 18 2016 &#45; 22:37</text>
<text text-anchor="start" x="177" y="-506.3" font-family="Times Roman,serif" font-size="13.00">Migration version: 20160203234652</text>
<text text-anchor="start" x="177" y="-489.3" font-family="Times Roman,serif" font-size="13.00">Generated by RailRoady 1.4.2</text>
<text text-anchor="start" x="177" y="-472.3" font-family="Times Roman,serif" font-size="13.00">http://railroady.prestonlee.com</text>
</g>
<!-- Api::V1::LanguagesController -->
<g id="node2" class="node"><title>Api::V1::LanguagesController</title>
<polyline fill="none" stroke="black" points="475,-358.5 669,-358.5 "/>
<path fill="none" stroke="black" d="M669,-358.5C675,-358.5 681,-364.5 681,-370.5"/>
<polyline fill="none" stroke="black" points="681,-370.5 681,-484.5 "/>
<path fill="none" stroke="black" d="M681,-484.5C681,-490.5 675,-496.5 669,-496.5"/>
<polyline fill="none" stroke="black" points="669,-496.5 475,-496.5 "/>
<path fill="none" stroke="black" d="M475,-496.5C469,-496.5 463,-490.5 463,-484.5"/>
<polyline fill="none" stroke="black" points="463,-484.5 463,-370.5 "/>
<path fill="none" stroke="black" d="M463,-370.5C463,-364.5 469,-358.5 475,-358.5"/>
<text text-anchor="middle" x="572" y="-479.9" font-family="Times Roman,serif" font-size="14.00">Api::V1::LanguagesController</text>
<polyline fill="none" stroke="black" points="463,-470.5 681,-470.5 "/>
<text text-anchor="start" x="471" y="-453.9" font-family="Times Roman,serif" font-size="14.00">identification</text>
<text text-anchor="start" x="471" y="-435.9" font-family="Times Roman,serif" font-size="14.00">language</text>
<text text-anchor="start" x="471" y="-417.9" font-family="Times Roman,serif" font-size="14.00">sample</text>
<polyline fill="none" stroke="black" points="463,-408.5 681,-408.5 "/>
<polyline fill="none" stroke="black" points="463,-384.5 681,-384.5 "/>
<text text-anchor="start" x="471" y="-367.9" font-family="Times Roman,serif" font-size="14.00">_layout</text>
</g>
<!-- Api::V1::MtController -->
<g id="node3" class="node"><title>Api::V1::MtController</title>
<polyline fill="none" stroke="black" points="349,-589.5 487,-589.5 "/>
<path fill="none" stroke="black" d="M487,-589.5C493,-589.5 499,-595.5 499,-601.5"/>
<polyline fill="none" stroke="black" points="499,-601.5 499,-715.5 "/>
<path fill="none" stroke="black" d="M499,-715.5C499,-721.5 493,-727.5 487,-727.5"/>
<polyline fill="none" stroke="black" points="487,-727.5 349,-727.5 "/>
<path fill="none" stroke="black" d="M349,-727.5C343,-727.5 337,-721.5 337,-715.5"/>
<polyline fill="none" stroke="black" points="337,-715.5 337,-601.5 "/>
<path fill="none" stroke="black" d="M337,-601.5C337,-595.5 343,-589.5 349,-589.5"/>
<text text-anchor="middle" x="418" y="-710.9" font-family="Times Roman,serif" font-size="14.00">Api::V1::MtController</text>
<polyline fill="none" stroke="black" points="337,-701.5 499,-701.5 "/>
<text text-anchor="start" x="345" y="-684.9" font-family="Times Roman,serif" font-size="14.00">index</text>
<text text-anchor="start" x="345" y="-666.9" font-family="Times Roman,serif" font-size="14.00">languages</text>
<polyline fill="none" stroke="black" points="337,-657.5 499,-657.5 "/>
<polyline fill="none" stroke="black" points="337,-633.5 499,-633.5 "/>
<text text-anchor="start" x="345" y="-616.9" font-family="Times Roman,serif" font-size="14.00">_layout</text>
<text text-anchor="start" x="345" y="-598.9" font-family="Times Roman,serif" font-size="14.00">start_mt</text>
</g>
<!-- Api::V1::GlossaryController -->
<g id="node4" class="node"><title>Api::V1::GlossaryController</title>
<polyline fill="none" stroke="black" points="559,-547.5 738,-547.5 "/>
<path fill="none" stroke="black" d="M738,-547.5C744,-547.5 750,-553.5 750,-559.5"/>
<polyline fill="none" stroke="black" points="750,-559.5 750,-673.5 "/>
<path fill="none" stroke="black" d="M750,-673.5C750,-679.5 744,-685.5 738,-685.5"/>
<polyline fill="none" stroke="black" points="738,-685.5 559,-685.5 "/>
<path fill="none" stroke="black" d="M559,-685.5C553,-685.5 547,-679.5 547,-673.5"/>
<polyline fill="none" stroke="black" points="547,-673.5 547,-559.5 "/>
<path fill="none" stroke="black" d="M547,-559.5C547,-553.5 553,-547.5 559,-547.5"/>
<text text-anchor="middle" x="648.5" y="-668.9" font-family="Times Roman,serif" font-size="14.00">Api::V1::GlossaryController</text>
<polyline fill="none" stroke="black" points="547,-659.5 750,-659.5 "/>
<text text-anchor="start" x="555" y="-642.9" font-family="Times Roman,serif" font-size="14.00">delete</text>
<text text-anchor="start" x="555" y="-624.9" font-family="Times Roman,serif" font-size="14.00">term</text>
<text text-anchor="start" x="555" y="-606.9" font-family="Times Roman,serif" font-size="14.00">terms</text>
<polyline fill="none" stroke="black" points="547,-597.5 750,-597.5 "/>
<polyline fill="none" stroke="black" points="547,-573.5 750,-573.5 "/>
<text text-anchor="start" x="555" y="-556.9" font-family="Times Roman,serif" font-size="14.00">_layout</text>
</g>
<!-- Api::V1::BaseApiController -->
<g id="node5" class="node"><title>Api::V1::BaseApiController</title>
<polyline fill="none" stroke="black" points="160,-148.5 408,-148.5 "/>
<path fill="none" stroke="black" d="M408,-148.5C414,-148.5 420,-154.5 420,-160.5"/>
<polyline fill="none" stroke="black" points="420,-160.5 420,-416.5 "/>
<path fill="none" stroke="black" d="M420,-416.5C420,-422.5 414,-428.5 408,-428.5"/>
<polyline fill="none" stroke="black" points="408,-428.5 160,-428.5 "/>
<path fill="none" stroke="black" d="M160,-428.5C154,-428.5 148,-422.5 148,-416.5"/>
<polyline fill="none" stroke="black" points="148,-416.5 148,-160.5 "/>
<path fill="none" stroke="black" d="M148,-160.5C148,-154.5 154,-148.5 160,-148.5"/>
<text text-anchor="middle" x="284" y="-411.9" font-family="Times Roman,serif" font-size="14.00">Api::V1::BaseApiController</text>
<polyline fill="none" stroke="black" points="148,-402.5 420,-402.5 "/>
<polyline fill="none" stroke="black" points="148,-378.5 420,-378.5 "/>
<polyline fill="none" stroke="black" points="148,-354.5 420,-354.5 "/>
<text text-anchor="start" x="156" y="-337.9" font-family="Times Roman,serif" font-size="14.00">_layout</text>
<text text-anchor="start" x="156" y="-319.9" font-family="Times Roman,serif" font-size="14.00">authenticate_from_token!</text>
<text text-anchor="start" x="156" y="-301.9" font-family="Times Roman,serif" font-size="14.00">get_params</text>
<text text-anchor="start" x="156" y="-283.9" font-family="Times Roman,serif" font-size="14.00">remove_empty_params_and_headers</text>
<text text-anchor="start" x="156" y="-265.9" font-family="Times Roman,serif" font-size="14.00">render_error</text>
<text text-anchor="start" x="156" y="-247.9" font-family="Times Roman,serif" font-size="14.00">render_parameters_missing</text>
<text text-anchor="start" x="156" y="-229.9" font-family="Times Roman,serif" font-size="14.00">render_success</text>
<text text-anchor="start" x="156" y="-211.9" font-family="Times Roman,serif" font-size="14.00">render_unauthorized</text>
<text text-anchor="start" x="156" y="-193.9" font-family="Times Roman,serif" font-size="14.00">set_custom_response_headers</text>
<text text-anchor="start" x="156" y="-175.9" font-family="Times Roman,serif" font-size="14.00">verify_payload!</text>
<text text-anchor="start" x="156" y="-157.9" font-family="Times Roman,serif" font-size="14.00">verify_signature</text>
</g>
<!-- Api::V1::DictionaryController -->
<g id="node6" class="node"><title>Api::V1::DictionaryController</title>
<polyline fill="none" stroke="black" points="475,-127.5 666,-127.5 "/>
<path fill="none" stroke="black" d="M666,-127.5C672,-127.5 678,-133.5 678,-139.5"/>
<polyline fill="none" stroke="black" points="678,-139.5 678,-307.5 "/>
<path fill="none" stroke="black" d="M678,-307.5C678,-313.5 672,-319.5 666,-319.5"/>
<polyline fill="none" stroke="black" points="666,-319.5 475,-319.5 "/>
<path fill="none" stroke="black" d="M475,-319.5C469,-319.5 463,-313.5 463,-307.5"/>
<polyline fill="none" stroke="black" points="463,-307.5 463,-139.5 "/>
<path fill="none" stroke="black" d="M463,-139.5C463,-133.5 469,-127.5 475,-127.5"/>
<text text-anchor="middle" x="570.5" y="-302.9" font-family="Times Roman,serif" font-size="14.00">Api::V1::DictionaryController</text>
<polyline fill="none" stroke="black" points="463,-293.5 678,-293.5 "/>
<text text-anchor="start" x="471" y="-276.9" font-family="Times Roman,serif" font-size="14.00">terms</text>
<polyline fill="none" stroke="black" points="463,-267.5 678,-267.5 "/>
<polyline fill="none" stroke="black" points="463,-243.5 678,-243.5 "/>
<text text-anchor="start" x="471" y="-226.9" font-family="Times Roman,serif" font-size="14.00">GetMainGloss</text>
<text text-anchor="start" x="471" y="-208.9" font-family="Times Roman,serif" font-size="14.00">GetMainSense</text>
<text text-anchor="start" x="471" y="-190.9" font-family="Times Roman,serif" font-size="14.00">GetSynset</text>
<text text-anchor="start" x="471" y="-172.9" font-family="Times Roman,serif" font-size="14.00">_layout</text>
<text text-anchor="start" x="471" y="-154.9" font-family="Times Roman,serif" font-size="14.00">generatePayload</text>
<text text-anchor="start" x="471" y="-136.9" font-family="Times Roman,serif" font-size="14.00">request_terms</text>
</g>
<!-- Api::V1::TmController -->
<g id="node7" class="node"><title>Api::V1::TmController</title>
<polyline fill="none" stroke="black" points="139,-589.5 281,-589.5 "/>
<path fill="none" stroke="black" d="M281,-589.5C287,-589.5 293,-595.5 293,-601.5"/>
<polyline fill="none" stroke="black" points="293,-601.5 293,-715.5 "/>
<path fill="none" stroke="black" d="M293,-715.5C293,-721.5 287,-727.5 281,-727.5"/>
<polyline fill="none" stroke="black" points="281,-727.5 139,-727.5 "/>
<path fill="none" stroke="black" d="M139,-727.5C133,-727.5 127,-721.5 127,-715.5"/>
<polyline fill="none" stroke="black" points="127,-715.5 127,-601.5 "/>
<path fill="none" stroke="black" d="M127,-601.5C127,-595.5 133,-589.5 139,-589.5"/>
<text text-anchor="middle" x="210" y="-710.9" font-family="Times Roman,serif" font-size="14.00">Api::V1::TmController</text>
<polyline fill="none" stroke="black" points="127,-701.5 293,-701.5 "/>
<text text-anchor="start" x="135" y="-684.9" font-family="Times Roman,serif" font-size="14.00">language</text>
<text text-anchor="start" x="135" y="-666.9" font-family="Times Roman,serif" font-size="14.00">source</text>
<text text-anchor="start" x="135" y="-648.9" font-family="Times Roman,serif" font-size="14.00">tuple</text>
<polyline fill="none" stroke="black" points="127,-639.5 293,-639.5 "/>
<polyline fill="none" stroke="black" points="127,-615.5 293,-615.5 "/>
<text text-anchor="start" x="135" y="-598.9" font-family="Times Roman,serif" font-size="14.00">_layout</text>
</g>
<!-- ApplicationController -->
<g id="node8" class="node"><title>ApplicationController</title>
<polyline fill="none" stroke="black" points="13,-1.5 150,-1.5 "/>
<path fill="none" stroke="black" d="M150,-1.5C156,-1.5 162,-7.5 162,-13.5"/>
<polyline fill="none" stroke="black" points="162,-13.5 162,-89.5 "/>
<path fill="none" stroke="black" d="M162,-89.5C162,-95.5 156,-101.5 150,-101.5"/>
<polyline fill="none" stroke="black" points="150,-101.5 13,-101.5 "/>
<path fill="none" stroke="black" d="M13,-101.5C7,-101.5 1,-95.5 1,-89.5"/>
<polyline fill="none" stroke="black" points="1,-89.5 1,-13.5 "/>
<path fill="none" stroke="black" d="M1,-13.5C1,-7.5 7,-1.5 13,-1.5"/>
<text text-anchor="middle" x="81.5" y="-84.9" font-family="Times Roman,serif" font-size="14.00">ApplicationController</text>
<polyline fill="none" stroke="black" points="1,-75.5 162,-75.5 "/>
<polyline fill="none" stroke="black" points="1,-51.5 162,-51.5 "/>
<polyline fill="none" stroke="black" points="1,-27.5 162,-27.5 "/>
<text text-anchor="start" x="9" y="-10.9" font-family="Times Roman,serif" font-size="14.00">_layout</text>
</g>
</g>
</svg>
