<?xml version="1.0" encoding="UTF-8" standalone="no"?>
<!DOCTYPE svg PUBLIC "-//W3C//DTD SVG 1.1//EN"
 "http://www.w3.org/Graphics/SVG/1.1/DTD/svg11.dtd">
<!-- Generated by graphviz version 2.26.3 (20100126.1600)
 -->
<!-- Title: models_diagram Pages: 1 -->
<svg width="444pt" height="152pt"
 viewBox="0.00 0.00 444.00 152.00" xmlns="http://www.w3.org/2000/svg" xmlns:xlink="http://www.w3.org/1999/xlink">
<g id="graph1" class="graph" transform="scale(1 1) rotate(0) translate(4 148)">
<title>models_diagram</title>
<polygon fill="none" stroke="none" points="-4,5 -4,-148 441,-148 441,5 -4,5"/>
<!-- _diagram_info -->
<g id="node1" class="node"><title>_diagram_info</title>
<text text-anchor="start" x="8" y="-102.8" font-family="Times Roman,serif" font-size="13.00">Models diagram</text>
<text text-anchor="start" x="8" y="-85.8" font-family="Times Roman,serif" font-size="13.00">Date: Mar 18 2016 &#45; 22:38</text>
<text text-anchor="start" x="8" y="-68.8" font-family="Times Roman,serif" font-size="13.00">Migration version: 20160203234652</text>
<text text-anchor="start" x="8" y="-51.8" font-family="Times Roman,serif" font-size="13.00">Generated by RailRoady 1.4.2</text>
<text text-anchor="start" x="8" y="-34.8" font-family="Times Roman,serif" font-size="13.00">http://railroady.prestonlee.com</text>
</g>
<!-- ApiKey -->
<g id="node2" class="node"><title>ApiKey</title>
<polyline fill="none" stroke="black" points="280,-1 424,-1 "/>
<path fill="none" stroke="black" d="M424,-1C430,-1 436,-7 436,-13"/>
<polyline fill="none" stroke="black" points="436,-13 436,-131 "/>
<path fill="none" stroke="black" d="M436,-131C436,-137 430,-143 424,-143"/>
<polyline fill="none" stroke="black" points="424,-143 280,-143 "/>
<path fill="none" stroke="black" d="M280,-143C274,-143 268,-137 268,-131"/>
<polyline fill="none" stroke="black" points="268,-131 268,-13 "/>
<path fill="none" stroke="black" d="M268,-13C268,-7 274,-1 280,-1"/>
<text text-anchor="middle" x="352" y="-126.4" font-family="Times Roman,serif" font-size="14.00">ApiKey</text>
<polyline fill="none" stroke="black" points="268,-117 436,-117 "/>
<text text-anchor="start" x="276" y="-100.4" font-family="Times Roman,serif" font-size="14.00">id :INTEGER</text>
<text text-anchor="start" x="276" y="-82.4" font-family="Times Roman,serif" font-size="14.00">access_token :varchar</text>
<text text-anchor="start" x="276" y="-64.4" font-family="Times Roman,serif" font-size="14.00">expire_at :datetime</text>
<text text-anchor="start" x="276" y="-46.4" font-family="Times Roman,serif" font-size="14.00">created_at :datetime</text>
<text text-anchor="start" x="276" y="-28.4" font-family="Times Roman,serif" font-size="14.00">updated_at :datetime</text>
<text text-anchor="start" x="276" y="-10.4" font-family="Times Roman,serif" font-size="14.00">application :varchar</text>
</g>
</g>
</svg>
